<?xml version="1.0" standalone="no"?>
<!DOCTYPE svg PUBLIC "-//W3C//DTD SVG 20010904//EN"
 "http://www.w3.org/TR/2001/REC-SVG-20010904/DTD/svg10.dtd">
<svg version="1.0" xmlns="http://www.w3.org/2000/svg"
 width="380.000000pt" height="380.000000pt" viewBox="0 0 380.000000 380.000000"
 preserveAspectRatio="xMidYMid meet">
<metadata>
Created by potrace 1.14, written by Peter Selinger 2001-2017
</metadata>
<g transform="translate(0.000000,380.000000) scale(0.100000,-0.100000)"
fill="#000000" stroke="none">
<path d="M0 1900 l0 -1900 1215 0 c1069 0 1215 2 1215 15 0 31 -63 210 -79
223 -14 11 -10 12 24 7 79 -12 219 -67 252 -98 40 -38 66 -91 60 -123 l-4 -24
304 0 304 0 -27 46 c-27 46 -27 46 -5 39 26 -8 54 -34 71 -65 9 -17 19 -20 48
-18 34 3 37 6 45 46 8 42 7 45 -35 92 -46 52 -86 70 -155 70 -26 0 -43 5 -43
11 0 8 17 10 56 5 68 -8 70 -11 -50 112 -44 45 -75 82 -69 82 6 0 13 -4 15 -9
2 -5 90 -99 197 -210 l194 -201 72 0 71 0 23 40 c18 32 20 44 11 60 -6 11 -10
30 -8 42 3 25 -21 35 -84 37 -68 2 -53 21 16 21 36 0 66 3 66 7 0 3 -8 24 -17
44 -13 27 -24 39 -40 39 -28 0 -30 11 -38 155 -3 66 -8 132 -11 147 -5 26 -3
28 26 28 38 0 64 22 47 39 -8 8 -8 11 1 11 7 0 12 7 12 15 0 8 4 15 8 15 4 0
8 9 9 19 1 16 -7 21 -45 26 -109 15 -110 22 -5 30 l103 7 -6 27 c-3 14 -13 50
-21 79 -8 30 -12 56 -10 59 8 7 28 -7 23 -16 -7 -10 36 -84 52 -89 9 -3 12 87
12 427 0 420 -1 431 -20 443 -11 7 -20 21 -20 31 0 10 -5 15 -10 12 -6 -3 -10
-1 -10 4 0 6 5 11 10 11 6 0 10 5 10 11 0 7 -10 9 -25 7 -14 -3 -28 -1 -32 5
-3 6 -1 7 5 3 7 -4 12 -1 12 8 0 9 5 16 10 16 6 0 10 11 10 25 0 19 -5 25 -22
24 -13 0 -17 -3 -10 -6 14 -6 16 -43 2 -43 -5 0 -10 5 -10 10 0 13 -27 13 -32
-1 -2 -5 -15 2 -28 17 -14 15 -19 24 -12 20 6 -4 12 -2 12 3 0 6 -10 11 -22
12 -22 1 -22 1 2 8 21 6 22 8 8 14 -10 3 -24 4 -32 1 -8 -3 -17 -1 -21 5 -3 7
0 8 9 5 9 -3 16 -1 16 5 0 6 19 11 48 11 26 0 71 3 100 6 l52 7 0 304 0 304
-32 -5 c-18 -3 -53 -8 -78 -10 -25 -3 -83 -11 -130 -20 -122 -21 -125 -21
-125 -14 0 4 -8 13 -17 20 -12 9 -16 21 -12 35 4 13 10 21 14 18 5 -3 12 0 16
6 4 8 3 9 -4 5 -17 -10 -15 9 12 104 13 47 29 107 36 133 12 45 14 47 31 31
10 -9 16 -22 12 -28 -3 -6 -2 -8 2 -3 11 10 66 -43 58 -56 -3 -6 -2 -7 4 -4
11 7 86 -66 78 -76 -3 -4 -2 -5 2 -2 4 3 35 -23 70 -57 l63 -62 0 617 0 617
-277 0 -278 0 153 -153 154 -154 -217 -54 c-119 -30 -218 -53 -219 -50 -2 4
14 85 35 181 20 96 40 187 43 203 l6 27 -1600 0 -1600 0 0 -1900z m3697 1828
c-3 -8 -6 -5 -6 6 -1 11 2 17 5 13 3 -3 4 -12 1 -19z m-960 -90 c41 -38 109
-212 133 -339 10 -58 10 -71 -5 -98 -9 -18 -28 -36 -42 -42 -31 -12 -105 -8
-101 5 2 5 -8 13 -21 17 -15 6 -21 14 -17 25 3 8 2 13 -3 10 -16 -10 -72 131
-102 254 -29 118 -14 168 58 190 37 11 73 3 100 -22z m-269 -68 c22 -14 32
-26 28 -36 -3 -9 -1 -12 4 -9 6 3 10 4 10 1 0 -2 3 -13 6 -23 5 -15 4 -15 -5
-3 -9 13 -11 13 -11 -2 0 -20 -20 -25 -20 -5 0 9 -3 8 -9 -2 -7 -11 -11 -9
-21 9 -11 21 -10 22 9 17 11 -3 21 -1 21 3 0 14 -88 9 -100 -5 -7 -8 -11 -31
-10 -52 2 -21 2 -45 1 -53 -1 -13 -2 -13 -11 0 -6 9 -10 10 -10 3 0 -17 17
-25 26 -12 4 6 14 -5 24 -27 12 -26 19 -32 19 -20 1 27 30 56 49 49 10 -4 13
-2 8 5 -9 15 4 15 41 1 22 -8 24 -12 13 -19 -13 -8 -12 -10 3 -10 9 0 17 -5
17 -11 0 -5 5 -7 10 -4 9 5 12 -1 9 -21 0 -4 3 -10 8 -13 10 -7 33 -58 33 -73
0 -7 -7 -3 -15 8 -12 16 -14 17 -15 2 0 -9 9 -20 20 -23 16 -5 20 -15 20 -51
0 -54 -16 -88 -36 -80 -8 3 -13 2 -10 -3 3 -5 -1 -12 -10 -15 -8 -3 -12 -2 -9
4 3 6 -3 10 -14 10 -10 0 -22 6 -25 13 -5 9 -7 9 -12 0 -4 -9 -11 -10 -24 -3
-13 7 -20 6 -24 -3 -3 -6 -4 -3 -3 8 1 12 -3 19 -10 17 -7 -1 -13 4 -13 12 0
8 -6 21 -13 28 -28 27 -39 60 -32 94 3 21 2 34 -5 34 -5 0 -10 -6 -11 -12 0
-7 -5 -2 -12 10 -9 20 -8 26 6 33 9 6 17 17 17 25 0 13 -3 13 -17 -2 -16 -16
-18 -15 -30 14 -19 46 -28 142 -14 142 6 0 10 3 10 8 -3 20 2 32 12 26 6 -3 9
-15 6 -25 -3 -11 -1 -16 5 -13 5 4 8 17 5 30 -8 45 54 58 111 24z m-240 -62
c17 -17 15 -28 -5 -22 -10 3 -8 -1 5 -9 23 -13 23 -13 -15 -25 -21 -6 -58 -13
-83 -16 -25 -3 -37 -3 -28 0 9 3 15 11 12 19 -3 7 0 16 5 20 6 3 8 11 5 17 -5
7 0 9 14 6 12 -4 20 -2 17 2 -5 7 13 14 51 19 5 0 15 -4 22 -11z m-134 -51
c-9 -25 -34 -21 -34 6 0 18 2 19 10 7 8 -13 10 -12 10 5 0 13 3 16 10 9 6 -6
8 -18 4 -27z m18 -37 c6 0 7 -7 4 -16 -3 -8 -2 -13 3 -10 5 3 14 -14 21 -39 7
-25 19 -50 27 -57 8 -6 13 -7 12 -2 -5 27 4 43 30 54 49 20 99 -22 131 -111
21 -58 26 -83 10 -59 -8 13 -10 12 -10 -2 0 -10 7 -18 15 -18 8 0 15 -7 15
-16 0 -8 -4 -12 -10 -9 -6 4 -10 -9 -9 -32 0 -30 2 -34 9 -18 7 15 9 16 9 4 1
-9 -7 -23 -16 -30 -14 -12 -16 -12 -8 0 6 11 4 13 -8 8 -8 -3 -28 -2 -44 2
-26 7 -27 8 -5 13 12 3 22 2 22 -3 0 -5 5 -9 10 -9 6 0 10 21 10 46 0 25 -4
43 -9 40 -5 -3 -11 2 -14 12 -2 9 -8 26 -12 37 -6 17 -5 17 5 5 9 -13 11 -12
8 5 -2 11 -8 20 -15 20 -16 0 -29 15 -15 16 7 1 17 2 24 3 15 1 22 22 10 30
-6 3 -15 -1 -22 -9 -18 -22 -32 -18 -20 5 6 11 8 25 5 30 -9 15 -27 1 -21 -16
3 -8 0 -11 -10 -7 -11 4 -12 9 -3 19 9 11 8 14 -1 14 -7 0 -10 7 -6 15 7 18
-3 19 -26 1 -22 -16 -23 -27 -3 -20 24 9 18 -8 -12 -33 -14 -13 -21 -23 -15
-23 7 0 12 -4 12 -10 0 -6 -10 -5 -25 2 -14 6 -25 17 -25 25 0 7 -5 13 -11 13
-16 0 -38 62 -33 95 3 23 2 25 -4 11 -8 -18 -9 -18 -15 -2 -11 28 -8 39 9 32
9 -3 20 -6 26 -6z m-224 -49 c52 -15 113 -55 154 -99 38 -41 110 -162 107
-178 -1 -5 3 -22 10 -38 6 -16 15 -46 20 -67 l9 -39 -33 0 c-37 0 -79 -29
-100 -70 -20 -39 -19 -49 5 -43 11 3 20 12 20 19 0 20 41 35 58 21 11 -9 10
-12 -7 -19 -29 -10 -28 -52 2 -65 18 -9 25 -7 44 16 11 14 24 23 27 20 4 -4 9
-29 13 -57 5 -42 1 -60 -23 -111 -16 -33 -35 -61 -41 -61 -7 0 -13 -7 -13 -15
0 -13 -11 -19 -32 -16 -4 0 -4 -14 -1 -33 5 -32 4 -33 -38 -40 -25 -4 -46 -3
-53 4 -14 14 -49 13 -64 -2 -10 -10 -14 -10 -21 0 -11 19 -31 -30 -31 -77 0
-29 6 -43 23 -54 22 -16 21 -16 -13 -11 -19 3 -45 10 -56 16 -28 13 -58 7 -62
-13 -3 -18 99 -106 134 -115 14 -4 46 5 83 22 34 15 64 24 68 20 4 -4 -6 -46
-21 -94 -15 -48 -31 -98 -35 -112 -6 -18 -15 -25 -34 -25 -14 0 -29 -3 -33 -7
-25 -25 -59 4 -126 109 -15 24 -32 43 -37 43 -5 0 -12 11 -15 25 -3 13 -14 32
-24 42 -54 54 -69 88 -76 168 -4 44 -16 116 -27 160 -11 44 -27 114 -36 155
-8 41 -19 82 -23 91 -5 9 -14 52 -21 95 -14 93 1 286 25 331 29 53 71 94 111
107 42 15 127 13 183 -3z m-480 -29 c-30 -6 -20 -19 24 -34 43 -14 46 -18 55
-96 4 -38 2 -44 -16 -49 -21 -5 -39 -59 -28 -85 6 -18 -12 -132 -25 -153 -3
-5 -9 -24 -12 -41 -4 -17 -18 -42 -32 -54 -13 -13 -24 -31 -24 -41 0 -9 -13
-22 -28 -28 -26 -11 -59 -39 -90 -76 -11 -12 -31 -15 -96 -13 -80 3 -85 2
-111 -24 -29 -30 -79 -58 -102 -58 -31 0 -6 304 35 408 30 79 107 186 176 248
34 29 64 54 68 54 4 0 24 11 44 25 29 20 39 23 46 13 6 -10 10 -10 16 -2 4 7
16 13 27 16 26 4 96 -4 73 -10z m762 -108 c0 -2 -9 -4 -20 -4 -11 0 -20 4 -20
9 0 5 9 7 20 4 11 -3 20 -7 20 -9z m30 -98 c0 -2 -7 -7 -16 -10 -8 -3 -12 -2
-9 4 6 10 25 14 25 6z m117 -28 c-3 -8 -6 -5 -6 6 -1 11 2 17 5 13 3 -3 4 -12
1 -19z m-79 -21 c22 8 13 -1 -15 -15 -19 -11 -20 -9 -15 10 3 13 7 17 9 11 3
-7 12 -9 21 -6z m295 6 c-7 -2 -19 -2 -25 0 -7 3 -2 5 12 5 14 0 19 -2 13 -5z
m-1606 -25 c-3 -8 -6 -5 -6 6 -1 11 2 17 5 13 3 -3 4 -12 1 -19z m1333 -8 c0
-5 -5 -10 -11 -10 -5 0 -7 -6 -3 -12 5 -10 4 -10 -6 -1 -7 6 -9 16 -6 22 9 14
26 14 26 1z m746 -342 c16 -18 20 -26 10 -18 -18 14 -19 13 -13 -10 l6 -25
-19 25 c-10 13 -16 28 -13 33 2 4 -8 5 -24 1 -27 -6 -27 -6 -8 9 27 22 27 22
61 -15z m-143 -2 c4 -10 1 -13 -8 -9 -8 3 -12 9 -9 14 7 12 11 11 17 -5z
m-233 -30 c0 -3 -4 -8 -10 -11 -5 -3 -10 -1 -10 4 0 6 5 11 10 11 6 0 10 -2
10 -4z m257 -38 c-3 -8 -6 -5 -6 6 -1 11 2 17 5 13 3 -3 4 -12 1 -19z m-376
-41 c-10 -9 -11 -8 -5 6 3 10 9 15 12 12 3 -3 0 -11 -7 -18z m341 -9 c-8 -8
-9 -4 -5 13 4 13 8 18 11 10 2 -7 -1 -18 -6 -23z m158 -8 c0 -5 -7 -10 -16
-10 -8 0 -12 5 -9 10 3 6 10 10 16 10 5 0 9 -4 9 -10z m-123 -37 c-8 -9 -20
-12 -26 -9 -16 11 -13 26 4 20 9 -4 18 1 22 12 4 12 8 14 11 5 2 -7 -3 -20
-11 -28z m-234 2 c-3 -9 -8 -14 -10 -11 -3 3 -2 9 2 15 9 16 15 13 8 -4z m431
-10 c3 -8 1 -15 -4 -15 -6 0 -10 7 -10 15 0 8 2 15 4 15 2 0 6 -7 10 -15z
m-87 -1 c-3 -3 -12 -4 -19 -1 -8 3 -5 6 6 6 11 1 17 -2 13 -5z m-84 -44 c-3
-11 -7 -20 -9 -20 -2 0 -4 9 -4 20 0 11 4 20 9 20 5 0 7 -9 4 -20z m167 -74
c10 -45 -2 -37 -19 13 -6 18 -8 45 -4 60 l8 26 3 -30 c2 -16 7 -47 12 -69z
m326 67 c-10 -10 -19 5 -10 18 6 11 8 11 12 0 2 -7 1 -15 -2 -18z m-463 -3 c3
-11 1 -18 -4 -14 -5 3 -9 12 -9 20 0 20 7 17 13 -6z m-136 -7 c2 -6 -7 -10
-21 -10 -20 0 -22 2 -13 13 13 15 29 13 34 -3z m294 -35 c-4 -41 -4 -42 -12
-15 -8 29 -3 57 10 57 4 0 5 -19 2 -42z m-201 11 c0 -6 -4 -7 -10 -4 -5 3 -10
11 -10 16 0 6 5 7 10 4 6 -3 10 -11 10 -16z m-810 -99 c-21 -13 -103 -21 -113
-11 -13 13 58 74 92 81 24 5 26 2 29 -29 2 -19 -2 -37 -8 -41z m730 60 c0 -5
-2 -10 -4 -10 -3 0 -8 5 -11 10 -3 6 -1 10 4 10 6 0 11 -4 11 -10z m141 -33
c-10 -9 -11 -8 -5 6 3 10 9 15 12 12 3 -3 0 -11 -7 -18z m144 -17 c3 -5 1 -10
-4 -10 -6 0 -11 5 -11 10 0 6 2 10 4 10 3 0 8 -4 11 -10z m-638 -52 c-3 -8 -6
-5 -6 6 -1 11 2 17 5 13 3 -3 4 -12 1 -19z m-497 3 c0 -5 -9 -7 -20 -4 -11 3
-20 7 -20 9 0 2 9 4 20 4 11 0 20 -4 20 -9z m1250 -378 c-19 -9 -38 -21 -41
-26 -3 -5 -9 -2 -12 7 -5 11 0 16 14 16 11 0 18 4 15 8 -2 4 10 9 27 10 l32 2
-35 -17z m-230 -23 c0 -5 -7 -10 -15 -10 -8 0 -15 5 -15 10 0 6 7 10 15 10 8
0 15 -4 15 -10z m259 1 c9 -6 22 -6 34 1 14 7 23 6 31 -2 8 -9 7 -11 -4 -8 -8
2 -14 -2 -13 -9 1 -6 -3 -10 -10 -9 -17 3 -74 35 -62 35 6 1 17 -3 24 -8z
m-492 -17 c-3 -3 -12 -4 -19 -1 -8 3 -5 6 6 6 11 1 17 -2 13 -5z m230 -10 c-3
-3 -12 -4 -19 -1 -8 3 -5 6 6 6 11 1 17 -2 13 -5z m38 -4 c-3 -5 -1 -10 4 -10
6 0 11 -8 11 -17 0 -15 -2 -14 -15 3 -17 23 -19 34 -4 34 5 0 7 -4 4 -10z m55
-16 c0 -2 -9 0 -20 6 -11 6 -20 13 -20 16 0 2 9 0 20 -6 11 -6 20 -13 20 -16z
m-356 8 c3 -5 -1 -9 -9 -9 -8 0 -12 4 -9 9 3 4 7 8 9 8 2 0 6 -4 9 -8z m599
-9 c-7 -2 -19 -2 -25 0 -7 3 -2 5 12 5 14 0 19 -2 13 -5z m-2173 -7 c0 -3 -4
-8 -10 -11 -5 -3 -10 -1 -10 4 0 6 5 11 10 11 6 0 10 -2 10 -4z m1704 -32 c3
-8 2 -12 -4 -9 -6 3 -10 10 -10 16 0 14 7 11 14 -7z m217 2 c-6 -7 -9 -21 -5
-30 3 -9 2 -16 -3 -16 -13 0 -13 32 0 48 5 6 12 12 14 12 3 0 0 -6 -6 -14z
m139 -47 c0 -5 -8 -1 -18 9 -10 9 -16 25 -14 35 4 15 7 13 18 -9 8 -14 14 -30
14 -35z m-2055 40 c11 -17 -1 -21 -15 -4 -8 9 -8 15 -2 15 6 0 14 -5 17 -11z
m2130 -29 c3 -5 -1 -10 -9 -10 -8 0 -18 5 -21 10 -3 6 1 10 9 10 8 0 18 -4 21
-10z m85 -29 c7 -14 3 -17 -21 -19 -16 -1 -29 3 -29 9 0 6 8 8 20 4 25 -8 26
3 3 21 -17 13 -17 14 0 8 10 -4 22 -14 27 -23z m-2124 -17 c8 3 14 -1 14 -8 0
-17 79 -58 94 -49 7 4 6 1 -1 -8 -10 -12 -3 -14 45 -14 l57 0 27 -53 c15 -29
28 -58 30 -64 6 -18 68 20 86 54 10 17 35 54 56 84 30 41 42 51 52 43 16 -13
34 -4 34 17 0 15 9 18 27 6 17 -11 32 -113 37 -267 4 -133 4 -139 -12 -115
-36 52 -78 94 -109 106 -43 19 -73 18 -73 -2 0 -12 -8 -14 -44 -9 -29 5 -46 3
-51 -5 -5 -7 -1 -11 11 -9 11 1 30 -3 44 -8 15 -7 29 -7 35 -2 12 12 42 12 50
0 3 -6 -4 -19 -17 -30 -32 -31 -17 -35 22 -6 44 32 50 32 19 -2 -21 -23 -21
-25 -5 -19 20 7 20 7 1 -16 -31 -36 -54 -58 -60 -58 -12 0 -34 28 -28 34 4 3
-1 6 -11 6 -10 0 -14 5 -10 11 4 8 -1 9 -17 4 l-24 -8 20 24 c18 22 18 22 1 9
-15 -12 -20 -12 -23 -2 -3 6 -12 12 -20 12 -14 0 -13 3 3 22 21 23 25 23 -35
7 -13 -4 -171 191 -171 211 0 5 8 6 18 3 9 -4 -11 17 -45 45 -35 29 -63 56
-63 61 0 17 15 22 18 6 2 -9 10 -14 18 -11z m2014 11 c-7 -8 -17 -15 -23 -15
-6 0 -2 7 9 15 25 19 30 19 14 0z m-40 1 c0 -11 -19 -15 -25 -6 -3 5 1 10 9
10 9 0 16 -2 16 -4z m-353 -38 c-3 -8 -6 -5 -6 6 -1 11 2 17 5 13 3 -3 4 -12
1 -19z m333 6 c0 -8 -19 -13 -24 -6 -3 5 1 9 9 9 8 0 15 -2 15 -3z m37 -10
c-3 -3 -12 -4 -19 -1 -8 3 -5 6 6 6 11 1 17 -2 13 -5z m-107 -38 c0 -3 -4 -8
-10 -11 -5 -3 -10 -1 -10 4 0 6 5 11 10 11 6 0 10 -2 10 -4z m245 -6 c3 -5 -1
-10 -10 -10 -9 0 -13 5 -10 10 3 6 8 10 10 10 2 0 7 -4 10 -10z m-3 -62 l-21
-21 6 21 c3 12 9 19 14 16 5 -3 9 0 9 7 0 7 3 9 7 5 4 -3 -3 -16 -15 -28z
m-201 -1 c-10 -9 -11 -8 -5 6 3 10 9 15 12 12 3 -3 0 -11 -7 -18z m98 -26 c-1
-13 -2 -13 -6 2 -2 9 -9 17 -14 17 -6 0 -7 -5 -3 -12 4 -7 3 -8 -4 -4 -6 4 -9
13 -5 22 7 19 34 -1 32 -25z m31 -1 c0 -5 -2 -10 -4 -10 -3 0 -8 5 -11 10 -3
6 -1 10 4 10 6 0 11 -4 11 -10z m-220 -20 c0 -5 -5 -10 -11 -10 -5 0 -7 5 -4
10 3 6 8 10 11 10 2 0 4 -4 4 -10z m-1396 -225 c-3 -8 -15 -17 -26 -21 -16 -5
-18 -8 -7 -15 10 -6 7 -9 -11 -8 -25 0 -24 0 10 29 39 34 41 35 34 15z m116
-146 c31 -177 31 -179 13 -172 -10 4 -14 2 -9 -5 3 -6 2 -13 -3 -16 -14 -9
-21 20 -8 33 9 9 8 11 -5 6 -26 -10 -63 75 -38 90 4 3 7 -6 6 -20 -2 -13 1
-22 5 -19 5 3 9 13 9 22 -1 20 -29 72 -31 57 -1 -5 -2 -14 -4 -20 -1 -5 -3
-19 -4 -30 -1 -18 -4 -17 -26 10 -13 17 -25 41 -25 55 -1 23 -2 23 -9 5 l-8
-20 -6 20 c-4 11 -6 34 -5 52 1 25 6 32 25 36 15 3 27 -2 33 -12 8 -13 9 -12
10 9 0 14 3 36 7 48 l6 24 24 -25 c20 -19 29 -46 43 -128z m-163 39 c-3 -8 -6
-5 -6 6 -1 11 2 17 5 13 3 -3 4 -12 1 -19z m1950 -165 c-9 -2 -15 -8 -13 -12
3 -4 -1 -8 -8 -8 -8 0 -12 6 -9 14 3 7 15 12 27 12 17 -1 17 -2 3 -6z m36 -77
c-4 -15 -2 -17 5 -8 7 11 11 7 15 -15 3 -15 1 -34 -5 -40 -6 -7 -7 -13 -2 -13
5 0 0 -7 -10 -15 -11 -8 -38 -15 -60 -14 -35 0 -38 2 -20 11 12 5 32 28 44 50
21 38 22 42 6 54 -10 7 -13 15 -7 18 6 4 8 14 5 24 -4 11 1 9 14 -7 11 -14 17
-33 15 -45z m-3460 -48 c-10 -21 -12 -21 -18 -5 -10 25 2 54 17 39 8 -8 8 -18
1 -34z m3327 18 c0 -2 -7 -7 -16 -10 -8 -3 -12 -2 -9 4 6 10 25 14 25 6z m14
-40 c-3 -8 -12 -12 -20 -9 -17 6 -9 23 11 23 8 0 12 -6 9 -14z m-3291 -238 c6
-46 6 -47 -13 -36 -20 13 -25 43 -13 87 8 31 18 11 26 -51z m-39 -84 c3 -9 6
-23 6 -32 0 -21 -15 -5 -25 26 -7 25 9 31 19 6z m3329 -81 c9 -136 9 -223 -2
-223 -22 0 -29 35 -36 173 -7 142 -6 147 12 147 18 0 21 -10 26 -97z m-2537 9
c22 -22 75 -84 134 -156 30 -38 37 -53 28 -63 -14 -17 -28 -17 -28 2 0 18 -31
35 -64 35 -15 0 -32 9 -41 23 -45 64 -65 99 -60 107 3 5 1 19 -5 30 -11 20 -6
40 9 40 4 0 16 -8 27 -18z m2119 -63 c22 -23 33 -38 24 -33 -16 9 -75 74 -67
74 2 0 22 -19 43 -41z m-2825 15 c0 -3 -9 -17 -20 -31 -21 -27 -24 -23 -14 15
5 19 34 33 34 16z m3366 -446 c5 -7 2 -9 -9 -5 -9 3 -18 1 -21 -6 -2 -7 -5 -4
-5 6 -1 19 24 23 35 5z m54 -8 c0 -5 -4 -10 -10 -10 -5 0 -10 5 -10 10 0 6 5
10 10 10 6 0 10 -4 10 -10z"/>
<path d="M2647 3599 c-25 -14 -21 -61 13 -172 17 -54 28 -103 24 -109 -4 -6
-3 -8 4 -4 13 8 24 -25 16 -50 -5 -16 -4 -16 5 -4 9 13 11 13 11 0 1 -20 35
-60 52 -60 22 0 38 21 38 50 0 29 -59 223 -90 294 -21 50 -47 69 -73 55z"/>
<path d="M2641 3404 c0 -11 3 -14 6 -6 3 7 2 16 -1 19 -3 4 -6 -2 -5 -13z"/>
<path d="M2726 3201 c-4 -6 -2 -11 4 -11 7 0 9 -7 5 -17 -5 -14 -3 -15 5 -6 8
7 9 17 2 28 -6 12 -11 14 -16 6z"/>
<path d="M2780 3170 c-9 -6 -10 -10 -3 -10 6 0 15 5 18 10 8 12 4 12 -15 0z"/>
<path d="M2457 3559 c7 -7 15 -10 18 -7 3 3 -2 9 -12 12 -14 6 -15 5 -6 -5z"/>
<path d="M2379 3543 c-13 -16 -12 -17 4 -4 16 13 21 21 13 21 -2 0 -10 -8 -17
-17z"/>
<path d="M2320 3478 c0 -19 2 -20 10 -8 13 19 13 30 0 30 -5 0 -10 -10 -10
-22z"/>
<path d="M2345 3480 c-3 -5 -1 -10 4 -10 6 0 11 5 11 10 0 6 -2 10 -4 10 -3 0
-8 -4 -11 -10z"/>
<path d="M2478 3383 c7 -3 16 -2 19 1 4 3 -2 6 -13 5 -11 0 -14 -3 -6 -6z"/>
<path d="M2440 3345 c0 -8 -4 -15 -9 -15 -6 0 -6 -12 -1 -31 5 -17 9 -34 8
-38 -3 -17 50 -111 68 -119 28 -14 54 3 54 35 0 21 2 24 15 13 13 -10 15 -9
15 8 0 14 -5 20 -14 16 -15 -6 -43 58 -37 85 1 7 -2 10 -8 7 -5 -4 -12 2 -15
12 -6 18 -45 42 -66 42 -6 0 -10 -7 -10 -15z"/>
<path d="M2546 3293 c-6 -14 -5 -15 5 -6 7 7 10 15 7 18 -3 3 -9 -2 -12 -12z"/>
<path d="M2406 3276 c3 -9 11 -16 16 -16 13 0 5 23 -10 28 -7 2 -10 -2 -6 -12z"/>
<path d="M2397 3230 c6 -22 23 -38 23 -21 0 17 -12 41 -20 41 -5 0 -6 -9 -3
-20z"/>
<path d="M2455 3170 c-3 -5 -1 -10 4 -10 6 0 11 5 11 10 0 6 -2 10 -4 10 -3 0
-8 -4 -11 -10z"/>
<path d="M2595 3160 c-3 -5 -1 -10 4 -10 6 0 11 5 11 10 0 6 -2 10 -4 10 -3 0
-8 -4 -11 -10z"/>
<path d="M2190 3500 c-9 -6 -10 -10 -3 -10 6 0 15 5 18 10 8 12 4 12 -15 0z"/>
<path d="M2128 3463 c7 -3 16 -2 19 1 4 3 -2 6 -13 5 -11 0 -14 -3 -6 -6z"/>
<path d="M2117 3336 c-6 -15 1 -26 15 -26 11 0 10 27 -1 34 -5 3 -11 0 -14 -8z"/>
<path d="M2321 3214 c0 -11 3 -14 6 -6 3 7 2 16 -1 19 -3 4 -6 -2 -5 -13z"/>
<path d="M1724 2946 c-24 -24 -44 -51 -44 -61 0 -15 5 -13 27 9 14 15 32 25
40 22 7 -3 13 -1 13 4 0 18 50 10 72 -12 14 -14 37 -22 70 -25 41 -3 48 -1 48
14 0 50 -66 93 -141 93 -36 0 -48 -6 -85 -44z"/>
<path d="M1762 2858 c-28 -28 -2 -53 44 -42 17 4 24 13 24 30 0 20 -5 24 -28
24 -15 0 -33 -5 -40 -12z"/>
<path d="M1527 1437 c-4 -10 5 -14 31 -14 21 0 27 2 14 4 -12 3 -20 9 -17 14
4 5 0 9 -8 9 -8 0 -17 -6 -20 -13z"/>
<path d="M1614 1435 c-10 -8 -14 -15 -8 -15 5 0 19 7 30 15 10 8 14 15 8 15
-5 0 -19 -7 -30 -15z"/>
<path d="M1575 1400 c-3 -5 -2 -10 4 -10 5 0 13 5 16 10 3 6 2 10 -4 10 -5 0
-13 -4 -16 -10z"/>
<path d="M1630 1380 c-13 -8 -13 -10 2 -10 9 0 20 5 23 10 8 13 -5 13 -25 0z"/>
<path d="M1588 1373 c7 -3 16 -2 19 1 4 3 -2 6 -13 5 -11 0 -14 -3 -6 -6z"/>
<path d="M1610 1349 c0 -5 5 -7 10 -4 6 3 10 8 10 11 0 2 -4 4 -10 4 -5 0 -10
-5 -10 -11z"/>
<path d="M1666 1235 c4 -8 8 -15 10 -15 2 0 4 7 4 15 0 8 -4 15 -10 15 -5 0
-7 -7 -4 -15z"/>
<path d="M1696 1167 c3 -10 9 -15 12 -12 3 3 0 11 -7 18 -10 9 -11 8 -5 -6z"/>
<path d="M1771 1064 c0 -11 3 -14 6 -6 3 7 2 16 -1 19 -3 4 -6 -2 -5 -13z"/>
<path d="M3768 1923 c6 -2 18 -2 25 0 6 3 1 5 -13 5 -14 0 -19 -2 -12 -5z"/>
<path d="M3755 1899 c-10 -15 1 -23 20 -15 9 3 13 10 10 16 -8 13 -22 13 -30
-1z"/>
<path d="M3644 1859 c-9 -15 12 -17 30 -4 17 13 17 14 -4 12 -12 -1 -24 -5
-26 -8z"/>
</g>
</svg>
